<?xml version="1.0" standalone="no"?><!DOCTYPE svg PUBLIC "-//W3C//DTD SVG 1.1//EN" "http://www.w3.org/Graphics/SVG/1.1/DTD/svg11.dtd"><svg t="1567662993648" class="icon" viewBox="0 0 1024 1024" version="1.1" xmlns="http://www.w3.org/2000/svg" p-id="1816" xmlns:xlink="http://www.w3.org/1999/xlink" width="200" height="200"><defs><style type="text/css"></style></defs><path d="M512 42.666667C251.733333 42.666667 42.666667 251.733333 42.666667 512s209.066667 469.333333 469.333333 469.333333 469.333333-209.066667 469.333333-469.333333S772.266667 42.666667 512 42.666667zM512 85.333333c157.866667 0 294.4 85.333333 369.066667 213.333333L512 298.666667c-108.8 0-198.4 81.066667-211.2 187.733333L168.533333 258.133333C247.466667 153.6 371.2 85.333333 512 85.333333zM360.533333 590.933333C347.733333 567.466667 341.333333 539.733333 341.333333 512c0-93.866667 76.8-170.666667 170.666667-170.666667 93.866667 0 170.666667 76.8 170.666667 170.666667s-76.8 170.666667-170.666667 170.666667c-64 0-119.466667-36.266667-149.333333-87.466667l0 0L360.533333 590.933333zM465.066667 936.533333C251.733333 913.066667 85.333333 731.733333 85.333333 512c0-76.8 21.333333-151.466667 57.6-213.333333l179.2 311.466667c36.266667 68.266667 106.666667 115.2 189.866667 115.2 29.866667 0 57.6-6.4 83.2-17.066667L465.066667 936.533333zM512 938.666667l185.6-320 0 0c17.066667-32 27.733333-66.133333 27.733333-104.533333 0-70.4-34.133333-132.266667-85.333333-170.666667l262.4 0c23.466667 53.333333 36.266667 110.933333 36.266667 170.666667C938.666667 746.666667 748.8 938.666667 512 938.666667z" p-id="1817"></path></svg>